<svg width="222" height="30" viewBox="0 0 222 30" fill="none" xmlns="http://www.w3.org/2000/svg">
<path fill-rule="evenodd" clip-rule="evenodd" d="M11.8035 4.49101C12.1717 4.45465 12.5435 4.50009 12.8919 4.62404C13.2403 4.74798 13.5566 4.94735 13.8181 5.20772L15.4521 6.83256C15.7146 7.09412 15.9154 7.41045 16.0398 7.75864C16.1643 8.10683 16.2094 8.47818 16.1718 8.84581C16.1377 9.17583 16.1778 9.50923 16.2891 9.82197C16.4004 10.1347 16.5801 10.419 16.8153 10.6543C17.2344 11.0656 17.7968 11.3005 18.3856 11.3103C18.9744 11.32 19.5443 11.1038 19.977 10.7066C20.3209 10.3845 20.5548 9.96333 20.6457 9.50231C20.7367 9.04128 20.6802 8.56351 20.4841 8.13605C20.2881 7.7086 19.9623 7.35291 19.5526 7.11893C19.1429 6.88495 18.6698 6.78442 18.1997 6.83145C17.8315 6.86805 17.4597 6.82272 17.1113 6.69876C16.7628 6.5748 16.4465 6.37531 16.1852 6.11474L14.55 4.4899C14.2876 4.22803 14.087 3.9115 13.9625 3.56315C13.8381 3.2148 13.7929 2.84333 13.8304 2.47553C13.8769 2.01315 13.7784 1.54779 13.5484 1.14328C13.3184 0.738774 12.9682 0.41495 12.5457 0.216237C12.1233 0.0175234 11.6494 -0.0463435 11.189 0.0333993C10.7286 0.113142 10.3043 0.332588 9.97433 0.661627C9.64434 0.990666 9.42483 1.41318 9.34591 1.87119C9.26699 2.32921 9.33252 2.80029 9.53353 3.21979C9.73453 3.6393 10.0612 3.98669 10.4686 4.21428C10.876 4.44188 11.3443 4.53855 11.8091 4.49101H11.8035ZM17.1661 25.3775C17.5146 25.5013 17.8864 25.5463 18.2546 25.5093C18.7252 25.4611 19.1993 25.5607 19.61 25.7943C20.0207 26.0278 20.3475 26.3835 20.5444 26.8113C20.7413 27.2392 20.7984 27.7176 20.7077 28.1793C20.617 28.6411 20.3829 29.063 20.0386 29.3856C19.6059 29.7828 19.036 29.999 18.4472 29.9893C17.8584 29.9795 17.296 29.7446 16.8769 29.3333C16.6417 29.098 16.462 28.8137 16.3507 28.501C16.2394 28.1882 16.1993 27.8548 16.2333 27.5248C16.2709 27.1572 16.2259 26.7858 16.1014 26.4376C15.9769 26.0895 15.7762 25.7731 15.5137 25.5116L13.8785 23.8867C13.6171 23.6264 13.3007 23.427 12.9523 23.303C12.6039 23.1791 12.2322 23.1337 11.864 23.17C11.3991 23.2173 10.931 23.1204 10.5237 22.8927C10.1164 22.6649 9.78994 22.3174 9.58912 21.8979C9.3883 21.4783 9.32294 21.0073 9.40201 20.5493C9.48107 20.0914 9.7007 19.669 10.0307 19.3401C10.3608 19.0112 10.7851 18.7918 11.2454 18.7122C11.7058 18.6326 12.1797 18.6965 12.602 18.8953C13.0244 19.0941 13.3746 19.4179 13.6045 19.8224C13.8344 20.2269 13.9329 20.6922 13.8864 21.1545C13.8484 21.5224 13.8933 21.894 14.0178 22.2424C14.1423 22.5908 14.3432 22.9073 14.606 23.1689L16.24 24.7938C16.5013 25.0543 16.8177 25.2537 17.1661 25.3775ZM10.1934 26.0076C10.5985 25.6773 11.1062 25.4969 11.6301 25.4972C11.9274 25.497 12.2218 25.5551 12.4965 25.6684C12.7711 25.7817 13.0206 25.9477 13.2305 26.1571C13.6008 26.5256 13.8311 27.0103 13.8823 27.5287C13.9335 28.0471 13.8023 28.5671 13.5111 29.0001C13.2199 29.4331 12.7867 29.7523 12.2854 29.9033C11.7841 30.0543 11.2456 30.0278 10.7617 29.8283C10.2778 29.6287 9.8785 29.2686 9.63176 28.8091C9.38502 28.3496 9.30615 27.8192 9.40856 27.3084C9.51098 26.7976 9.78836 26.3379 10.1934 26.0076ZM20.6492 2.6917C20.5619 3.12843 20.3462 3.52959 20.0296 3.84446C19.8194 4.05366 19.5699 4.21962 19.2952 4.33285C19.0204 4.44608 18.726 4.50437 18.4286 4.50437C18.1312 4.50437 17.8368 4.44608 17.562 4.33285C17.2873 4.21962 17.0378 4.05366 16.8276 3.84446C16.511 3.52959 16.2953 3.12843 16.208 2.6917C16.1206 2.25497 16.1655 1.80229 16.3368 1.3909C16.5082 0.979515 16.7984 0.627899 17.1707 0.380514C17.5431 0.133129 17.9808 0.00108682 18.4286 0.00108682C18.8764 0.00108682 19.3141 0.133129 19.6865 0.380514C20.0588 0.627899 20.349 0.979515 20.5204 1.3909C20.6917 1.80229 20.7366 2.25497 20.6492 2.6917ZM6.19861 7.94546C6.62876 7.82141 7.01225 7.57329 7.30057 7.23248C7.58888 6.89168 7.76908 6.4735 7.81835 6.03085C7.86763 5.58819 7.78376 5.14094 7.57738 4.74569C7.371 4.35043 7.05136 4.02492 6.65891 3.81033C6.26645 3.59574 5.81881 3.50171 5.37261 3.54014C4.9264 3.57856 4.50168 3.74772 4.15217 4.02621C3.80266 4.3047 3.54407 4.68001 3.4091 5.10466C3.27412 5.52932 3.26884 5.98423 3.39391 6.41188C3.47677 6.69572 3.61506 6.96055 3.80086 7.19124C3.98666 7.42193 4.21635 7.61397 4.4768 7.75638C4.73725 7.89879 5.02336 7.98879 5.31879 8.02123C5.61422 8.05367 5.91319 8.02793 6.19861 7.94546ZM3.76917 13.4378C3.52009 13.6585 3.22489 13.8215 2.90483 13.9152C2.3387 14.0746 1.73258 14.0113 1.21209 13.7385C0.691602 13.4656 0.296647 13.0041 0.109079 12.4495C-0.0359946 12.0018 -0.0363667 11.5202 0.10801 11.0724C0.252387 10.6245 0.534256 10.2329 0.914012 9.9525C1.29377 9.67213 1.75232 9.51714 2.22523 9.50929C2.69814 9.50144 3.16164 9.64112 3.5506 9.90872C3.85603 10.1168 4.20419 10.2547 4.56986 10.3125C4.93552 10.3702 5.30952 10.3464 5.66476 10.2426L7.8886 9.60156C8.24498 9.49915 8.57394 9.31905 8.85156 9.07437C9.12918 8.82969 9.34848 8.52658 9.49353 8.18706C9.67807 7.75416 9.99435 7.38962 10.3979 7.14463C10.8015 6.89964 11.2722 6.78652 11.7437 6.82114C12.2153 6.85577 12.6641 7.0364 13.0271 7.33768C13.3901 7.63896 13.6491 8.04574 13.7677 8.5009C13.9097 9.06884 13.8261 9.66936 13.5343 10.1776C13.2425 10.6858 12.7649 11.0626 12.2009 11.2297C11.8804 11.3214 11.5435 11.341 11.2144 11.2873C10.8854 11.2336 10.5724 11.1079 10.2982 10.9192C9.99168 10.7085 9.64175 10.5685 9.2739 10.5092C8.90605 10.4499 8.52954 10.4729 8.17176 10.5765L5.95239 11.2197C5.59537 11.3228 5.2659 11.5036 4.9879 11.749C4.70991 11.9944 4.49037 12.2984 4.34523 12.6387C4.21498 12.9441 4.01824 13.217 3.76917 13.4378ZM19.5607 14.4226C19.4761 14.7118 19.4508 15.0149 19.4862 15.314C19.5216 15.613 19.617 15.902 19.7668 16.1637C19.9166 16.4255 20.1176 16.6547 20.3581 16.8377C20.5986 17.0208 20.8735 17.154 21.1667 17.2294C21.738 17.3703 22.3419 17.2871 22.8531 16.997C23.3643 16.7069 23.7436 16.2321 23.9121 15.6713C24.0037 15.3526 24.0232 15.0177 23.9692 14.6906C23.9152 14.3635 23.7891 14.0523 23.5998 13.7794C23.388 13.4746 23.247 13.1266 23.1872 12.7609C23.1274 12.3952 23.1502 12.0208 23.254 11.6649L23.8987 9.46354C24.0029 9.10879 24.1851 8.78149 24.4321 8.5053C24.679 8.22911 24.9846 8.01093 25.3268 7.86652C25.6339 7.73713 25.9083 7.54152 26.1301 7.29382C26.3519 7.04612 26.5156 6.75251 26.6094 6.43421C26.7095 6.09805 26.7293 5.7433 26.6674 5.39817C26.6054 5.05304 26.4633 4.72705 26.2524 4.44611C26.0415 4.16517 25.7675 3.93704 25.4524 3.77985C25.1373 3.62267 24.7896 3.54076 24.437 3.54065C24.0241 3.54074 23.619 3.65318 23.2657 3.86579C22.9125 4.0784 22.6244 4.38308 22.4328 4.74682C22.2412 5.11056 22.1534 5.5195 22.1788 5.92934C22.2042 6.33918 22.3418 6.7343 22.5769 7.0719C22.7863 7.37599 22.9251 7.72257 22.9831 8.08655C23.0412 8.45054 23.0171 8.82282 22.9127 9.17641L22.2691 11.3833C22.166 11.7376 21.9848 12.0647 21.7388 12.3407C21.4927 12.6167 21.188 12.8349 20.8466 12.9792C20.5376 13.1093 20.2618 13.3064 20.0393 13.5561C19.8168 13.8059 19.6533 14.1019 19.5607 14.4226ZM25.6099 12.5127C25.4506 12.0686 25.4357 11.5859 25.5674 11.1329C25.7039 10.6646 25.9896 10.2532 26.3816 9.96033C26.7736 9.66749 27.2506 9.50916 27.7409 9.50916C28.2151 9.5095 28.6772 9.6581 29.0617 9.93394C29.4463 10.2098 29.734 10.5989 29.8839 11.0462C30.0339 11.4935 30.0387 11.9764 29.8975 12.4266C29.7563 12.8767 29.4763 13.2713 29.0972 13.5546C28.7181 13.8378 28.259 13.9953 27.7849 14.0048C27.3108 14.0144 26.8457 13.8754 26.4553 13.6076C26.065 13.3398 25.7693 12.9568 25.6099 12.5127ZM10.456 15.6435C10.5341 15.3526 10.5527 15.0491 10.5108 14.751C10.4689 14.4528 10.3673 14.1661 10.212 13.9076C10.0568 13.6492 9.85103 13.4243 9.6069 13.2463C9.36276 13.0683 9.08522 12.9408 8.79067 12.8712C8.62458 12.8319 8.45442 12.8121 8.28368 12.8122C7.78252 12.8144 7.29583 12.9795 6.89777 13.2823C6.49972 13.5851 6.21215 14.009 6.07887 14.4894C5.9926 14.811 5.97949 15.1476 6.04047 15.4749C6.10145 15.8022 6.235 16.1118 6.43141 16.3813C6.64819 16.6804 6.79565 17.0236 6.86319 17.3861C6.93073 17.7486 6.91666 18.1215 6.82201 18.478L6.22436 20.7038C6.12779 21.0607 5.95269 21.3918 5.71171 21.6732C5.47074 21.9546 5.1699 22.1793 4.83096 22.3309C4.52665 22.467 4.25643 22.6684 4.0397 22.9207C3.82297 23.1729 3.66511 23.4698 3.57747 23.7899C3.42923 24.3568 3.5063 24.9588 3.79266 25.4706C4.07902 25.9825 4.55267 26.3651 5.11524 26.5388C5.56842 26.6735 6.05266 26.6637 6.49991 26.5106C6.94716 26.3575 7.33493 26.0689 7.60873 25.6854C7.88253 25.3019 8.0286 24.8427 8.0264 24.3724C8.02421 23.902 7.87386 23.4442 7.59649 23.0632C7.37947 22.7642 7.2322 22.4209 7.16541 22.0582C7.09861 21.6955 7.11397 21.3225 7.21037 20.9665L7.8069 18.7462C7.90264 18.3899 8.07694 18.0592 8.31718 17.7781C8.55741 17.4971 8.85755 17.2728 9.19582 17.1214C9.50355 16.9843 9.77648 16.7804 9.99456 16.5246C10.2126 16.2688 10.3703 15.9678 10.456 15.6435ZM4.47759 17.7482C4.62162 18.1698 4.63671 18.6244 4.52095 19.0545C4.44406 19.3402 4.31132 19.608 4.13032 19.8427C3.94932 20.0773 3.7236 20.2742 3.46605 20.4221C3.20851 20.57 2.92419 20.666 2.62933 20.7046C2.33447 20.7432 2.03485 20.7237 1.74759 20.6471C1.31509 20.5318 0.926678 20.2916 0.631462 19.9568C0.336246 19.6221 0.14748 19.2078 0.0890347 18.7663C0.030589 18.3249 0.105087 17.8761 0.303109 17.4768C0.50113 17.0774 0.813784 16.7455 1.20154 16.5228C1.58929 16.3001 2.03473 16.1968 2.48154 16.2258C2.92835 16.2549 3.35647 16.415 3.71176 16.686C4.06705 16.957 4.33356 17.3267 4.47759 17.7482ZM24.2523 22.1105C23.7792 22.1103 23.3179 22.2573 22.9332 22.5312C22.5485 22.805 22.2597 23.1917 22.1074 23.6371C21.9551 24.0825 21.9469 24.5642 22.084 25.0144C22.2211 25.4647 22.4966 25.8609 22.8718 26.1475C23.247 26.434 23.7031 26.5965 24.1759 26.6121C24.6488 26.6277 25.1147 26.4956 25.5081 26.2344C25.9016 25.9732 26.2029 25.596 26.3697 25.1557C26.5365 24.7155 26.5604 24.2344 26.4381 23.7799C26.3101 23.3008 26.0264 22.8772 25.631 22.5753C25.2356 22.2733 24.7509 22.1099 24.2523 22.1105ZM27.0861 16.2878C27.2741 16.2375 27.4679 16.2121 27.6625 16.2121C28.1508 16.2139 28.6258 16.3704 29.0186 16.6587C29.4114 16.9471 29.7016 17.3524 29.8472 17.8158C29.983 18.2665 29.9733 18.7482 29.8195 19.1932C29.6658 19.6382 29.3756 20.024 28.9898 20.2965C28.604 20.5689 28.1421 20.7142 27.6689 20.7121C27.1957 20.7099 26.7352 20.5603 26.3519 20.2843C26.0512 20.0685 25.706 19.9221 25.3413 19.8555C24.9766 19.7889 24.6016 19.8038 24.2434 19.8992L22.0084 20.4979C21.65 20.5929 21.3175 20.766 21.0348 21.0047C20.7522 21.2434 20.5265 21.5417 20.3743 21.8779C20.1809 22.3072 19.857 22.6654 19.4482 22.9022C19.0394 23.1389 18.5663 23.2423 18.0953 23.1979C17.6244 23.1534 17.1793 22.9633 16.8226 22.6543C16.4659 22.3453 16.2156 21.9329 16.1068 21.4751C15.9776 20.9039 16.0746 20.3052 16.3776 19.8033C16.6806 19.3013 17.1664 18.9347 17.7342 18.7796C18.0576 18.6938 18.3961 18.6808 18.7252 18.7414C19.0544 18.8021 19.3657 18.9349 19.6368 19.1302C19.9381 19.3465 20.284 19.4935 20.6494 19.5604C21.0149 19.6274 21.3908 19.6128 21.7498 19.5175L23.9826 18.9232C24.3422 18.8271 24.6756 18.6525 24.9587 18.412C25.2417 18.1715 25.4673 17.8713 25.6189 17.5332C25.7556 17.2306 25.9581 16.962 26.2118 16.7466C26.4656 16.5313 26.7642 16.3746 27.0861 16.2878Z" fill="#FAFCFE"/>
<path d="M14.3721 12.839C13.9419 12.9631 13.5584 13.2112 13.2701 13.552C12.9818 13.8928 12.8016 14.311 12.7523 14.7536C12.7031 15.1963 12.7869 15.6435 12.9933 16.0388C13.1997 16.434 13.5193 16.7595 13.9118 16.9741C14.3042 17.1887 14.7519 17.2828 15.1981 17.2443C15.6443 17.2059 16.069 17.0367 16.4185 16.7582C16.768 16.4798 17.0266 16.1045 17.1616 15.6798C17.2966 15.2551 17.3018 14.8002 17.1768 14.3726C17.0939 14.0887 16.9556 13.8239 16.7698 13.5932C16.584 13.3625 16.3543 13.1705 16.0939 13.0281C15.8334 12.8857 15.5473 12.7957 15.2519 12.7632C14.9565 12.7308 14.6575 12.7565 14.3721 12.839Z" fill="#FBD700"/>
<path d="M53.9917 10.3129C52.9903 9.70097 51.9611 9.22809 50.904 8.8943C49.8656 8.5605 48.9476 8.3936 48.1502 8.3936C47.2601 8.3936 46.5554 8.5605 46.0362 8.8943C45.5169 9.22809 45.2573 9.6917 45.2573 10.2851C45.2573 10.8229 45.4335 11.2772 45.7858 11.6481C46.1567 12.0005 46.611 12.2972 47.1488 12.5382C47.7051 12.7608 48.4562 13.0111 49.4019 13.2893C50.7186 13.6787 51.7942 14.0682 52.6287 14.4576C53.4817 14.847 54.2049 15.4219 54.7983 16.1822C55.3917 16.9425 55.6885 17.9439 55.6885 19.1864C55.6885 20.3732 55.3639 21.4117 54.7149 22.3018C54.0844 23.1734 53.2035 23.841 52.0723 24.3046C50.9597 24.7682 49.6801 25 48.2337 25C46.713 25 45.2295 24.7218 43.783 24.1655C42.3366 23.5906 41.0756 22.8303 40 21.8846L41.5577 18.7135C42.5406 19.6222 43.6439 20.3361 44.8679 20.8554C46.0918 21.3746 47.2323 21.6342 48.2893 21.6342C49.3278 21.6342 50.1437 21.4395 50.7371 21.0501C51.3306 20.6421 51.6273 20.095 51.6273 19.4089C51.6273 18.8526 51.4418 18.3982 51.0709 18.0459C50.7186 17.675 50.2643 17.3783 49.7079 17.1558C49.1516 16.9332 48.3913 16.6829 47.427 16.4047C46.1103 16.0153 45.0348 15.6351 44.2003 15.2643C43.3658 14.8934 42.6518 14.337 42.0584 13.5953C41.465 12.835 41.1683 11.8428 41.1683 10.6189C41.1683 9.48771 41.465 8.50487 42.0584 7.67038C42.6704 6.81734 43.5234 6.15902 44.6175 5.69541C45.7302 5.2318 47.0097 5 48.4562 5C49.7172 5 50.9597 5.18544 52.1836 5.55633C53.4261 5.92721 54.5294 6.42791 55.4937 7.05841L53.9917 10.3129Z" fill="white"/>
<path d="M67.3138 5.30598C69.2609 5.30598 71.0041 5.72323 72.5432 6.55772C74.0824 7.37367 75.2878 8.52341 76.1594 10.007C77.031 11.4905 77.4668 13.1688 77.4668 15.0417C77.4668 16.9147 77.0217 18.593 76.1316 20.0765C75.26 21.5415 74.0453 22.6912 72.4876 23.5257C70.9299 24.3602 69.1589 24.7775 67.1747 24.7775H59.2192V5.30598H67.3138ZM67.3972 21.4951C68.584 21.4951 69.6503 21.2262 70.5961 20.6885C71.5604 20.1321 72.3114 19.3718 72.8492 18.4075C73.387 17.4247 73.6559 16.312 73.6559 15.0695C73.6559 13.8271 73.3777 12.7144 72.8214 11.7316C72.2651 10.7302 71.4955 9.96059 70.5126 9.42281C69.5483 8.86648 68.4635 8.58832 67.2581 8.58832H62.9466V21.4951H67.3972Z" fill="white"/>
<path d="M79.6764 5.30598H95.8099V7.92072L84.3496 21.5229H95.949V24.7775H79.3148V22.1349L90.7752 8.5605H79.6486L79.6764 5.30598Z" fill="white"/>
<path d="M112.205 9.816C113.272 9.816 114.242 10.0613 115.117 10.552C116.002 11.0427 116.696 11.72 117.197 12.584C117.709 13.4373 117.965 14.3813 117.965 15.416C117.965 16.4507 117.709 17.3947 117.197 18.248C116.696 19.1013 116.002 19.7733 115.117 20.264C114.232 20.7547 113.25 21 112.173 21H107.709V9.816H112.205ZM112.237 20.008C113.08 20.008 113.853 19.8053 114.557 19.4C115.261 18.9947 115.816 18.4453 116.221 17.752C116.637 17.048 116.845 16.2693 116.845 15.416C116.845 14.5627 116.637 13.784 116.221 13.08C115.805 12.376 115.24 11.8213 114.525 11.416C113.821 11.0107 113.042 10.808 112.189 10.808H108.813V20.008H112.237ZM123.469 12.584C124.77 12.584 125.762 13 126.445 13.832C127.127 14.6533 127.442 15.7627 127.389 17.16H120.397C120.471 18.056 120.802 18.7813 121.389 19.336C121.975 19.88 122.701 20.152 123.565 20.152C124.098 20.152 124.594 20.056 125.053 19.864C125.511 19.672 125.906 19.4 126.237 19.048L126.845 19.656C126.439 20.0933 125.949 20.4347 125.373 20.68C124.807 20.9147 124.183 21.032 123.501 21.032C122.69 21.032 121.97 20.856 121.341 20.504C120.711 20.1413 120.215 19.64 119.853 19C119.501 18.36 119.325 17.6293 119.325 16.808C119.325 15.9973 119.501 15.272 119.853 14.632C120.215 13.9813 120.711 13.48 121.341 13.128C121.97 12.7653 122.679 12.584 123.469 12.584ZM126.429 16.328C126.375 15.4533 126.082 14.76 125.549 14.248C125.026 13.7253 124.338 13.464 123.485 13.464C122.642 13.464 121.938 13.7253 121.373 14.248C120.807 14.7707 120.482 15.464 120.397 16.328H126.429ZM133.962 14.104C133.642 13.9013 133.285 13.7467 132.89 13.64C132.496 13.5227 132.106 13.464 131.722 13.464C131.189 13.464 130.757 13.5707 130.426 13.784C130.106 13.9867 129.946 14.296 129.946 14.712C129.946 15 130.032 15.2347 130.202 15.416C130.384 15.5973 130.602 15.7467 130.858 15.864C131.125 15.9707 131.493 16.0933 131.962 16.232C132.538 16.4027 133.008 16.5733 133.37 16.744C133.733 16.904 134.042 17.144 134.298 17.464C134.554 17.7733 134.682 18.184 134.682 18.696C134.682 19.4533 134.394 20.0347 133.818 20.44C133.242 20.8347 132.522 21.032 131.658 21.032C131.05 21.032 130.464 20.9307 129.898 20.728C129.333 20.5253 128.858 20.2373 128.474 19.864L128.906 19.096C129.269 19.4267 129.696 19.688 130.186 19.88C130.688 20.072 131.194 20.168 131.706 20.168C132.272 20.168 132.73 20.0507 133.082 19.816C133.445 19.5813 133.626 19.24 133.626 18.792C133.626 18.4827 133.536 18.232 133.354 18.04C133.173 17.8373 132.944 17.6827 132.666 17.576C132.4 17.4587 132.026 17.3253 131.546 17.176C130.981 17.0053 130.522 16.84 130.17 16.68C129.818 16.52 129.52 16.2907 129.274 15.992C129.029 15.6827 128.906 15.2827 128.906 14.792C128.906 14.056 129.178 13.5013 129.722 13.128C130.277 12.7547 130.965 12.568 131.786 12.568C132.266 12.568 132.73 12.632 133.178 12.76C133.626 12.888 134.026 13.064 134.378 13.288L133.962 14.104ZM136.814 12.616H137.886V21H136.814V12.616ZM137.358 9.448C137.571 9.448 137.747 9.52267 137.886 9.672C138.025 9.81067 138.094 9.98667 138.094 10.2C138.094 10.4133 138.019 10.5947 137.87 10.744C137.731 10.8933 137.561 10.968 137.358 10.968C137.145 10.968 136.963 10.8933 136.814 10.744C136.675 10.5947 136.606 10.4133 136.606 10.2C136.606 9.98667 136.675 9.81067 136.814 9.672C136.963 9.52267 137.145 9.448 137.358 9.448ZM148.249 12.616V20.12C148.249 20.9307 148.079 21.64 147.737 22.248C147.396 22.856 146.905 23.32 146.265 23.64C145.636 23.9707 144.905 24.136 144.073 24.136C142.836 24.136 141.689 23.7093 140.633 22.856L141.145 22.088C141.572 22.4613 142.02 22.744 142.489 22.936C142.959 23.128 143.471 23.224 144.025 23.224C144.985 23.224 145.748 22.9413 146.313 22.376C146.889 21.8213 147.177 21.0747 147.177 20.136V18.776C146.879 19.3627 146.452 19.8213 145.897 20.152C145.343 20.4827 144.703 20.648 143.977 20.648C143.231 20.648 142.564 20.4773 141.977 20.136C141.401 19.784 140.948 19.304 140.617 18.696C140.297 18.0773 140.137 17.3787 140.137 16.6C140.137 15.8213 140.297 15.128 140.617 14.52C140.948 13.912 141.407 13.4373 141.993 13.096C142.58 12.7547 143.247 12.584 143.993 12.584C144.719 12.584 145.353 12.7493 145.897 13.08C146.441 13.4 146.868 13.8587 147.177 14.456V12.616H148.249ZM144.169 19.784C144.745 19.784 145.263 19.6507 145.721 19.384C146.18 19.1067 146.537 18.728 146.793 18.248C147.049 17.768 147.177 17.2293 147.177 16.632C147.177 16.024 147.049 15.48 146.793 15C146.537 14.52 146.18 14.1467 145.721 13.88C145.263 13.6027 144.745 13.464 144.169 13.464C143.593 13.464 143.076 13.6027 142.617 13.88C142.159 14.1467 141.796 14.52 141.529 15C141.273 15.48 141.145 16.024 141.145 16.632C141.145 17.24 141.273 17.784 141.529 18.264C141.796 18.7333 142.153 19.1067 142.601 19.384C143.06 19.6507 143.583 19.784 144.169 19.784ZM155.542 12.584C156.544 12.584 157.328 12.8773 157.894 13.464C158.47 14.04 158.758 14.8347 158.758 15.848V21H157.67V16.104C157.67 15.3147 157.451 14.696 157.014 14.248C156.576 13.8 155.968 13.576 155.19 13.576C154.326 13.5867 153.632 13.8533 153.11 14.376C152.598 14.8987 152.304 15.6027 152.23 16.488V21H151.158V12.616H152.23V14.568C152.518 13.9173 152.939 13.4267 153.494 13.096C154.059 12.7653 154.742 12.5947 155.542 12.584ZM172.433 11.64C171.974 11.352 171.473 11.1333 170.929 10.984C170.385 10.824 169.873 10.744 169.393 10.744C168.625 10.744 168.006 10.8987 167.537 11.208C167.078 11.5067 166.849 11.9173 166.849 12.44C166.849 12.8987 166.977 13.272 167.233 13.56C167.489 13.848 167.803 14.0773 168.177 14.248C168.55 14.408 169.062 14.5893 169.713 14.792C170.47 15.016 171.078 15.24 171.537 15.464C172.006 15.6773 172.401 15.992 172.721 16.408C173.051 16.824 173.217 17.3733 173.217 18.056C173.217 18.6533 173.046 19.1813 172.705 19.64C172.374 20.0987 171.905 20.456 171.297 20.712C170.689 20.9573 169.99 21.08 169.201 21.08C168.422 21.08 167.659 20.9253 166.913 20.616C166.177 20.3067 165.542 19.896 165.009 19.384L165.521 18.472C166.022 18.9627 166.603 19.3467 167.265 19.624C167.926 19.9013 168.577 20.04 169.217 20.04C170.07 20.04 170.747 19.8693 171.249 19.528C171.75 19.176 172.001 18.7067 172.001 18.12C172.001 17.6507 171.873 17.2667 171.617 16.968C171.361 16.6693 171.046 16.44 170.673 16.28C170.299 16.12 169.777 15.9333 169.105 15.72C168.347 15.4853 167.739 15.2667 167.281 15.064C166.822 14.8507 166.433 14.5413 166.113 14.136C165.793 13.72 165.633 13.1813 165.633 12.52C165.633 11.9547 165.793 11.4587 166.113 11.032C166.433 10.6053 166.881 10.28 167.457 10.056C168.033 9.82133 168.699 9.704 169.457 9.704C170.065 9.704 170.673 9.79467 171.281 9.976C171.899 10.1573 172.443 10.3973 172.913 10.696L172.433 11.64ZM178.263 22.2C178.007 22.84 177.666 23.3253 177.239 23.656C176.823 23.9867 176.343 24.152 175.799 24.152C175.148 24.152 174.572 23.96 174.071 23.576L174.551 22.744C174.924 23 175.324 23.128 175.751 23.128C176.092 23.128 176.402 23.016 176.679 22.792C176.956 22.568 177.186 22.2427 177.367 21.816L177.719 20.952L174.247 12.616H175.383L178.263 19.816L181.031 12.616H182.135L178.263 22.2ZM187.962 14.104C187.642 13.9013 187.285 13.7467 186.89 13.64C186.496 13.5227 186.106 13.464 185.722 13.464C185.189 13.464 184.757 13.5707 184.426 13.784C184.106 13.9867 183.946 14.296 183.946 14.712C183.946 15 184.032 15.2347 184.202 15.416C184.384 15.5973 184.602 15.7467 184.858 15.864C185.125 15.9707 185.493 16.0933 185.962 16.232C186.538 16.4027 187.008 16.5733 187.37 16.744C187.733 16.904 188.042 17.144 188.298 17.464C188.554 17.7733 188.682 18.184 188.682 18.696C188.682 19.4533 188.394 20.0347 187.818 20.44C187.242 20.8347 186.522 21.032 185.658 21.032C185.05 21.032 184.464 20.9307 183.898 20.728C183.333 20.5253 182.858 20.2373 182.474 19.864L182.906 19.096C183.269 19.4267 183.696 19.688 184.186 19.88C184.688 20.072 185.194 20.168 185.706 20.168C186.272 20.168 186.73 20.0507 187.082 19.816C187.445 19.5813 187.626 19.24 187.626 18.792C187.626 18.4827 187.536 18.232 187.354 18.04C187.173 17.8373 186.944 17.6827 186.666 17.576C186.4 17.4587 186.026 17.3253 185.546 17.176C184.981 17.0053 184.522 16.84 184.17 16.68C183.818 16.52 183.52 16.2907 183.274 15.992C183.029 15.6827 182.906 15.2827 182.906 14.792C182.906 14.056 183.178 13.5013 183.722 13.128C184.277 12.7547 184.965 12.568 185.786 12.568C186.266 12.568 186.73 12.632 187.178 12.76C187.626 12.888 188.026 13.064 188.378 13.288L187.962 14.104ZM195.038 20.424C194.462 20.8187 193.843 21.0267 193.182 21.048C192.542 21.048 192.035 20.8507 191.662 20.456C191.289 20.0613 191.102 19.4693 191.102 18.68V13.688H189.902L189.886 12.856H191.102V10.696H192.174V12.856L194.894 12.84V13.688H192.174V18.504C192.174 19.5387 192.558 20.056 193.326 20.056C193.753 20.056 194.217 19.9067 194.718 19.608L195.038 20.424ZM200.109 12.584C201.41 12.584 202.402 13 203.085 13.832C203.768 14.6533 204.082 15.7627 204.029 17.16H197.037C197.112 18.056 197.442 18.7813 198.029 19.336C198.616 19.88 199.341 20.152 200.205 20.152C200.738 20.152 201.234 20.056 201.693 19.864C202.152 19.672 202.546 19.4 202.877 19.048L203.485 19.656C203.08 20.0933 202.589 20.4347 202.013 20.68C201.448 20.9147 200.824 21.032 200.141 21.032C199.33 21.032 198.61 20.856 197.981 20.504C197.352 20.1413 196.856 19.64 196.493 19C196.141 18.36 195.965 17.6293 195.965 16.808C195.965 15.9973 196.141 15.272 196.493 14.632C196.856 13.9813 197.352 13.48 197.981 13.128C198.61 12.7653 199.32 12.584 200.109 12.584ZM203.069 16.328C203.016 15.4533 202.722 14.76 202.189 14.248C201.666 13.7253 200.978 13.464 200.125 13.464C199.282 13.464 198.578 13.7253 198.013 14.248C197.448 14.7707 197.122 15.464 197.037 16.328H203.069ZM216.971 12.584C217.963 12.584 218.736 12.872 219.291 13.448C219.846 14.024 220.123 14.824 220.123 15.848V21H219.035V16.104C219.035 15.304 218.816 14.6853 218.379 14.248C217.952 13.8 217.36 13.576 216.603 13.576C215.707 13.5973 215.003 13.9067 214.491 14.504C213.99 15.1013 213.739 15.8907 213.739 16.872V21H212.651V16.104C212.651 15.304 212.432 14.6853 211.995 14.248C211.568 13.8 210.976 13.576 210.219 13.576C209.323 13.5973 208.619 13.9067 208.107 14.504C207.595 15.1013 207.339 15.8907 207.339 16.872V21H206.267V12.616H207.339V14.584C207.616 13.9227 208.027 13.4267 208.571 13.096C209.126 12.7653 209.798 12.5947 210.587 12.584C211.387 12.584 212.048 12.7813 212.571 13.176C213.104 13.5707 213.456 14.1253 213.627 14.84C213.883 14.0933 214.294 13.5333 214.859 13.16C215.435 12.7867 216.139 12.5947 216.971 12.584Z" fill="#FAFCFE"/>
</svg>
