<svg width="144" height="40" viewBox="0 0 144 40" fill="none" xmlns="http://www.w3.org/2000/svg">
<path fill-rule="evenodd" clip-rule="evenodd" d="M15.3369 6.66743C15.8154 6.61992 16.2984 6.67929 16.7511 6.84126C17.2038 7.00322 17.6148 7.26373 17.9545 7.60395L20.0777 9.72712C20.4188 10.0689 20.6796 10.4822 20.8413 10.9372C21.0031 11.3922 21.0616 11.8774 21.0128 12.3578C20.9686 12.789 21.0207 13.2247 21.1653 13.6333C21.3099 14.042 21.5434 14.4135 21.8489 14.7209C22.3936 15.2584 23.1243 15.5653 23.8893 15.5781C24.6544 15.5908 25.3949 15.3083 25.9571 14.7893C26.404 14.3684 26.7078 13.8181 26.826 13.2156C26.9442 12.6132 26.8708 11.9889 26.616 11.4304C26.3613 10.8718 25.9381 10.4071 25.4057 10.1013C24.8734 9.79558 24.2586 9.66421 23.6478 9.72566C23.1694 9.77348 22.6862 9.71426 22.2335 9.55228C21.7808 9.3903 21.3697 9.12962 21.0302 8.78914L18.9056 6.66598C18.5646 6.3238 18.3039 5.91019 18.1422 5.45501C17.9805 4.99983 17.9219 4.51442 17.9705 4.03383C18.031 3.42964 17.903 2.82155 17.6041 2.29298C17.3053 1.76442 16.8502 1.34128 16.3013 1.08163C15.7524 0.82197 15.1366 0.738516 14.5384 0.842715C13.9402 0.946914 13.3889 1.23366 12.9601 1.66361C12.5314 2.09357 12.2461 2.64566 12.1436 3.24414C12.0411 3.84263 12.1262 4.45818 12.3874 5.00635C12.6486 5.55451 13.073 6.00844 13.6023 6.30584C14.1317 6.60324 14.7402 6.72955 15.3442 6.66743H15.3369ZM22.3048 33.9596C22.7576 34.1214 23.2407 34.1802 23.7191 34.1319C24.3306 34.0688 24.9465 34.1991 25.4802 34.5042C26.0139 34.8094 26.4386 35.2742 26.6944 35.8332C26.9502 36.3922 27.0244 37.0174 26.9065 37.6207C26.7886 38.2241 26.4846 38.7754 26.0371 39.197C25.4749 39.716 24.7344 39.9985 23.9693 39.9858C23.2043 39.973 22.4735 39.666 21.9289 39.1286C21.6234 38.8211 21.3898 38.4497 21.2452 38.041C21.1006 37.6324 21.0486 37.1967 21.0927 36.7655C21.1416 36.2851 21.0831 35.7999 20.9213 35.3449C20.7596 34.8899 20.4988 34.4766 20.1577 34.1348L18.0331 32.0116C17.6933 31.6714 17.2823 31.4109 16.8296 31.2489C16.3769 31.087 15.8939 31.0276 15.4155 31.0751C14.8115 31.1369 14.2031 31.0103 13.6739 30.7127C13.1447 30.4151 12.7206 29.9611 12.4596 29.4128C12.1987 28.8646 12.1138 28.2491 12.2165 27.6507C12.3192 27.0523 12.6046 26.5004 13.0334 26.0706C13.4623 25.6408 14.0136 25.3542 14.6118 25.2501C15.2099 25.1461 15.8256 25.2296 16.3744 25.4894C16.9232 25.7491 17.3782 26.1722 17.677 26.7008C17.9758 27.2293 18.1037 27.8374 18.0432 28.4415C17.9939 28.9221 18.0523 29.4077 18.214 29.863C18.3758 30.3183 18.6368 30.7318 18.9783 31.0737L21.1015 33.1968C21.441 33.5373 21.852 33.7979 22.3048 33.9596ZM13.2448 34.7829C13.7712 34.3514 14.4309 34.1157 15.1115 34.116C15.4978 34.1157 15.8804 34.1917 16.2373 34.3397C16.5942 34.4877 16.9183 34.7047 17.191 34.9784C17.6722 35.4598 17.9715 36.0932 18.038 36.7706C18.1044 37.4479 17.934 38.1274 17.5556 38.6932C17.1773 39.259 16.6144 39.6761 15.963 39.8734C15.3116 40.0708 14.6119 40.0361 13.9832 39.7754C13.3545 39.5147 12.8356 39.044 12.515 38.4436C12.1944 37.8432 12.0919 37.1502 12.225 36.4827C12.3581 35.8152 12.7185 35.2145 13.2448 34.7829ZM26.8306 4.31629C26.7171 4.88696 26.4369 5.41115 26.0255 5.82259C25.7524 6.09595 25.4281 6.31281 25.0711 6.46077C24.7142 6.60873 24.3316 6.68489 23.9452 6.68489C23.5588 6.68489 23.1762 6.60873 22.8192 6.46077C22.4623 6.31281 22.138 6.09595 21.8649 5.82259C21.4535 5.41115 21.1733 4.88696 21.0598 4.31629C20.9463 3.74562 21.0046 3.15411 21.2272 2.61655C21.4499 2.079 21.827 1.61954 22.3108 1.29629C22.7946 0.97303 23.3633 0.800492 23.9452 0.800492C24.527 0.800492 25.0958 0.97303 25.5796 1.29629C26.0634 1.61954 26.4405 2.079 26.6631 2.61655C26.8858 3.15411 26.9441 3.74562 26.8306 4.31629ZM8.05417 11.1813C8.61308 11.0192 9.11136 10.695 9.48599 10.2497C9.86061 9.80436 10.0947 9.25793 10.1588 8.67952C10.2228 8.10111 10.1138 7.51669 9.84566 7.00022C9.5775 6.48374 9.16218 6.0584 8.65225 5.77799C8.14231 5.49759 7.56067 5.37472 6.98089 5.42493C6.40112 5.47515 5.84926 5.69619 5.39513 6.06008C4.94099 6.42398 4.60498 6.91439 4.42961 7.46929C4.25423 8.02418 4.24736 8.61861 4.40988 9.17741C4.51754 9.5483 4.69722 9.89435 4.93864 10.1958C5.18007 10.4972 5.47851 10.7482 5.81693 10.9343C6.15534 11.1203 6.5271 11.2379 6.91097 11.2803C7.29484 11.3227 7.6833 11.2891 8.05417 11.1813ZM4.89746 18.3581C4.57383 18.6465 4.19026 18.8596 3.77439 18.9819C3.03878 19.1902 2.25123 19.1076 1.57493 18.751C0.898632 18.3944 0.385448 17.7914 0.141732 17.0667C-0.0467695 16.4818 -0.047253 15.8525 0.140343 15.2672C0.327939 14.682 0.694185 14.1702 1.18762 13.8039C1.68106 13.4376 2.27688 13.235 2.89136 13.2248C3.50583 13.2145 4.10808 13.397 4.61347 13.7467C5.01033 14.0186 5.46272 14.1989 5.93784 14.2743C6.41297 14.3498 6.89893 14.3186 7.3605 14.183L10.25 13.3453C10.7131 13.2115 11.1405 12.9762 11.5013 12.6565C11.862 12.3368 12.1469 11.9407 12.3354 11.497C12.5752 10.9314 12.9862 10.455 13.5106 10.1349C14.035 9.81477 14.6465 9.66695 15.2592 9.71219C15.8719 9.75744 16.4551 9.99347 16.9268 10.3871C17.3985 10.7808 17.735 11.3124 17.8891 11.9071C18.0736 12.6492 17.9649 13.4339 17.5858 14.098C17.2066 14.7621 16.5861 15.2545 15.8532 15.4729C15.4368 15.5926 14.999 15.6183 14.5714 15.5481C14.1439 15.478 13.7373 15.3137 13.381 15.0671C12.9827 14.7918 12.528 14.6088 12.05 14.5313C11.5721 14.4538 11.0829 14.4839 10.618 14.6192L7.73424 15.4598C7.27034 15.5944 6.84224 15.8307 6.48103 16.1514C6.11982 16.4721 5.83456 16.8692 5.64597 17.3139C5.47673 17.713 5.22109 18.0696 4.89746 18.3581ZM25.4161 19.645C25.3063 20.0229 25.2734 20.4189 25.3194 20.8097C25.3654 21.2005 25.4894 21.5781 25.684 21.9201C25.8786 22.2621 26.1398 22.5616 26.4523 22.8007C26.7647 23.0399 27.122 23.214 27.503 23.3126C28.2453 23.4967 29.03 23.388 29.6942 23.0089C30.3585 22.6298 30.8512 22.0094 31.0702 21.2767C31.1892 20.8602 31.2145 20.4225 31.1444 19.9951C31.0742 19.5677 30.9103 19.1611 30.6644 18.8045C30.3892 18.4061 30.206 17.9515 30.1283 17.4736C30.0506 16.9957 30.0802 16.5065 30.2151 16.0414L31.0527 13.165C31.1882 12.7014 31.4249 12.2738 31.7458 11.9129C32.0667 11.552 32.4638 11.2669 32.9083 11.0782C33.3074 10.9091 33.6639 10.6535 33.9521 10.3298C34.2403 10.0062 34.453 9.62251 34.5749 9.20659C34.7049 8.76733 34.7307 8.30379 34.6502 7.85281C34.5697 7.40183 34.3851 6.97586 34.111 6.60876C33.837 6.24166 33.481 5.94356 33.0716 5.73817C32.6621 5.53278 32.2103 5.42575 31.7522 5.42561C31.2157 5.42572 30.6894 5.57264 30.2303 5.85046C29.7713 6.12828 29.397 6.52639 29.1481 7.00169C28.8991 7.47699 28.785 8.01135 28.818 8.54689C28.851 9.08242 29.0299 9.59872 29.3353 10.0399C29.6074 10.4372 29.7876 10.8901 29.8631 11.3657C29.9386 11.8413 29.9073 12.3278 29.7715 12.7898L28.9354 15.6735C28.8014 16.1365 28.566 16.5638 28.2463 16.9245C27.9266 17.2852 27.5306 17.5702 27.0871 17.7589C26.6856 17.9288 26.3271 18.1864 26.038 18.5128C25.7489 18.8391 25.5365 19.226 25.4161 19.645ZM33.2762 17.1493C33.0692 16.5689 33.0499 15.9382 33.221 15.3463C33.3983 14.7345 33.7696 14.1968 34.2789 13.8141C34.7882 13.4315 35.408 13.2246 36.0451 13.2246C36.6612 13.225 37.2616 13.4192 37.7614 13.7797C38.2611 14.1401 38.6348 14.6485 38.8297 15.2331C39.0246 15.8176 39.0307 16.4486 38.8472 17.0368C38.6638 17.625 38.3 18.1406 37.8074 18.5107C37.3148 18.8808 36.7183 19.0866 36.1022 19.0991C35.4862 19.1115 34.8819 18.9299 34.3747 18.58C33.8676 18.2301 33.4833 17.7296 33.2762 17.1493ZM13.586 21.2402C13.6874 20.8602 13.7116 20.4636 13.6572 20.074C13.6027 19.6845 13.4707 19.3098 13.269 18.9721C13.0673 18.6344 12.7999 18.3405 12.4827 18.1079C12.1655 17.8753 11.8049 17.7086 11.4222 17.6178C11.2063 17.5663 10.9852 17.5405 10.7634 17.5407C10.1122 17.5436 9.47983 17.7593 8.96262 18.1549C8.44541 18.5506 8.07175 19.1045 7.89857 19.7322C7.78648 20.1524 7.76944 20.5923 7.84868 21.02C7.92792 21.4476 8.10144 21.8522 8.35665 22.2044C8.63832 22.5952 8.82993 23.0436 8.91768 23.5173C9.00543 23.9911 8.98716 24.4783 8.86418 24.9441L8.08762 27.8526C7.96213 28.3189 7.73462 28.7516 7.42151 29.1193C7.1084 29.487 6.71751 29.7805 6.27711 29.9787C5.88171 30.1565 5.53059 30.4197 5.24899 30.7493C4.96738 31.0789 4.76226 31.4668 4.64838 31.8851C4.45577 32.6259 4.55591 33.4124 4.92799 34.0813C5.30007 34.7502 5.91551 35.2501 6.64648 35.4771C7.23532 35.6531 7.86452 35.6402 8.44565 35.4402C9.02678 35.2402 9.53063 34.8631 9.88639 34.3619C10.2422 33.8608 10.432 33.2608 10.4291 32.6462C10.4262 32.0316 10.2309 31.4334 9.8705 30.9355C9.58851 30.5449 9.39715 30.0962 9.31037 29.6223C9.22358 29.1484 9.24354 28.661 9.36879 28.1958L10.1439 25.2946C10.2683 24.829 10.4948 24.3968 10.8069 24.0296C11.1191 23.6624 11.5091 23.3692 11.9486 23.1714C12.3484 22.9923 12.7031 22.7258 12.9864 22.3916C13.2698 22.0574 13.4747 21.664 13.586 21.2402ZM5.81795 23.9905C6.0051 24.5414 6.02471 25.1354 5.87429 25.6974C5.77438 26.0707 5.60191 26.4207 5.36673 26.7273C5.13154 27.0339 4.83826 27.2912 4.50362 27.4845C4.16898 27.6777 3.79954 27.8031 3.41641 27.8536C3.03329 27.904 2.64398 27.8785 2.27072 27.7784C1.70876 27.6278 1.20408 27.3139 0.82049 26.8765C0.436901 26.439 0.191628 25.8977 0.115687 25.3209C0.0397458 24.744 0.136545 24.1576 0.393844 23.6358C0.651143 23.114 1.05739 22.6802 1.56122 22.3892C2.06504 22.0983 2.64383 21.9633 3.22439 22.0012C3.80496 22.0392 4.36123 22.2485 4.82287 22.6025C5.28452 22.9566 5.6308 23.4397 5.81795 23.9905ZM31.5123 29.6907C30.8975 29.6903 30.2981 29.8825 29.7982 30.2403C29.2984 30.5981 28.9231 31.1035 28.7252 31.6855C28.5273 32.2675 28.5167 32.8969 28.6948 33.4852C28.873 34.0735 29.231 34.5913 29.7185 34.9657C30.206 35.3402 30.7986 35.5525 31.413 35.5729C32.0274 35.5932 32.6327 35.4206 33.144 35.0793C33.6552 34.738 34.0467 34.2451 34.2635 33.6698C34.4802 33.0946 34.5113 32.4659 34.3524 31.872C34.1861 31.246 33.8173 30.6925 33.3036 30.2979C32.7899 29.9034 32.16 29.6899 31.5123 29.6907ZM35.1944 22.0822C35.4386 22.0165 35.6904 21.9833 35.9433 21.9833C36.5777 21.9857 37.1949 22.1901 37.7053 22.5669C38.2157 22.9437 38.5928 23.4733 38.7819 24.0788C38.9584 24.6678 38.9458 25.2972 38.746 25.8787C38.5462 26.4601 38.1691 26.9643 37.6679 27.3203C37.1666 27.6763 36.5664 27.8662 35.9516 27.8633C35.3367 27.8605 34.7383 27.665 34.2404 27.3043C33.8496 27.0224 33.4011 26.8311 32.9272 26.744C32.4533 26.657 31.966 26.6765 31.5006 26.8012L28.5965 27.5835C28.1309 27.7076 27.6988 27.9338 27.3316 28.2457C26.9643 28.5576 26.6712 28.9474 26.4734 29.3868C26.222 29.9477 25.8011 30.4157 25.27 30.7251C24.7388 31.0345 24.1241 31.1696 23.5122 31.1115C22.9002 31.0534 22.3219 30.805 21.8584 30.4012C21.395 29.9974 21.0697 29.4585 20.9284 28.8603C20.7605 28.114 20.8865 27.3317 21.2802 26.6758C21.674 26.0199 22.3052 25.5409 23.0429 25.3382C23.4631 25.2261 23.903 25.2091 24.3306 25.2883C24.7583 25.3676 25.1629 25.5411 25.515 25.7963C25.9065 26.0789 26.356 26.271 26.8308 26.3585C27.3057 26.446 27.7941 26.4269 28.2606 26.3024L31.1618 25.5258C31.629 25.4003 32.0622 25.1721 32.43 24.8578C32.7978 24.5436 33.0909 24.1513 33.2879 23.7095C33.4655 23.3141 33.7287 22.9631 34.0583 22.6817C34.388 22.4003 34.776 22.1956 35.1944 22.0822Z" fill="url(#paint0_linear_1305_4267)"/>
<path d="M18.6744 17.576C18.1155 17.7381 17.6172 18.0623 17.2426 18.5076C16.868 18.953 16.6338 19.4994 16.5698 20.0778C16.5058 20.6562 16.6147 21.2406 16.8829 21.7571C17.1511 22.2736 17.5664 22.6989 18.0763 22.9793C18.5863 23.2597 19.1679 23.3826 19.7477 23.3324C20.3275 23.2822 20.8793 23.0611 21.3334 22.6972C21.7876 22.3333 22.1236 21.8429 22.299 21.2881C22.4743 20.7332 22.4812 20.1387 22.3187 19.5799C22.211 19.209 22.0314 18.863 21.7899 18.5615C21.5485 18.2601 21.2501 18.0092 20.9116 17.8231C20.5732 17.637 20.2015 17.5194 19.8176 17.477C19.4337 17.4346 19.0453 17.4683 18.6744 17.576Z" fill="#FBD700"/>
<path d="M52.2219 25.8604C49.4676 25.8604 46.8005 24.8773 45.0831 23.2297L44.7341 22.8923L46.3424 19.7323L46.9779 20.3256C48.3071 21.566 50.4041 22.3615 52.3222 22.3615C53.2398 22.3615 55.3761 22.1826 55.4066 20.5219C55.4386 19.1826 54.0455 18.691 51.7711 17.9974C49.0967 17.1874 45.752 16.1723 45.7753 12.2925C45.7753 10.5241 46.5097 9.09317 47.897 8.13484C49.0691 7.3321 50.66 6.90747 52.4865 6.90747C54.6679 6.90747 56.8274 7.52842 58.4154 8.61037L58.8822 8.92884L57.3233 12.1499L56.7023 11.7559C55.3935 10.9299 53.7604 10.4354 52.3208 10.4354C51.281 10.4354 49.5345 10.6506 49.5345 12.0961C49.5345 13.2595 50.8767 13.7205 53.0668 14.3807C55.8298 15.214 59.2632 16.2509 59.2632 20.2369C59.2632 23.6543 56.4987 25.8604 52.2219 25.8604Z" fill="#1E7A75"/>
<path d="M71.5601 25.8606C66.066 25.8606 62.2283 21.969 62.2283 16.3965C62.2283 13.7134 63.1547 11.2936 64.8459 9.58197C66.5372 7.87034 68.9032 6.93237 71.5354 6.93237H71.6066C74.2489 6.93237 76.3634 7.74237 77.8903 9.33911C79.6456 11.1743 80.4905 13.9679 80.3363 17.4188L80.3087 18.0456H66.2216C66.8688 20.6893 68.9323 22.2992 71.7579 22.2992C73.7429 22.2992 75.4458 21.6128 76.6833 20.3156L77.1618 19.8139L79.4682 22.2861L79.0697 22.7325C77.2665 24.7481 74.5994 25.8606 71.5601 25.8606ZM66.2115 14.6194H76.6324C76.2325 12.0382 74.3304 10.4661 71.5266 10.4661C68.8261 10.4618 66.8091 12.0672 66.2115 14.6194Z" fill="#1E7A75"/>
<path d="M92.7323 25.8606C87.2179 25.8606 83.3671 21.956 83.3671 16.363C83.3671 13.6713 84.2978 11.2427 85.9847 9.52818C87.6716 7.81365 90.0565 6.86841 92.6959 6.86841H92.7672C95.4197 6.86841 97.5399 7.68132 99.0727 9.28387C100.834 11.1249 101.683 13.9287 101.527 17.3912L101.5 18.0165H87.3691C88.0177 20.6748 90.0899 22.2919 92.93 22.2919C94.9223 22.2919 96.6325 21.6041 97.8744 20.3011L98.3528 19.7994L100.665 22.2715L100.267 22.718C98.4561 24.7437 95.7774 25.8606 92.7323 25.8606ZM87.3604 14.5787H97.8308C97.4309 11.9844 95.52 10.4036 92.7032 10.4036C89.9852 10.4022 87.958 12.0178 87.3604 14.5787Z" fill="#1E7A75"/>
<path d="M113.538 25.8939C110.97 25.8939 108.656 24.9414 107.023 23.2123C105.39 21.4833 104.511 19.0823 104.511 16.4066C104.511 10.8412 108.21 6.9541 113.504 6.9541C116.029 6.9541 118.143 7.81791 119.638 9.42628V0H123.518V25.8852H119.638V23.4363C118.145 25.0345 116.04 25.8939 113.538 25.8939ZM114.031 10.6027C110.711 10.6027 108.393 13.0168 108.393 16.4735C108.393 19.8909 110.711 22.2773 114.031 22.2773C117.351 22.2773 119.638 19.8909 119.638 16.4735C119.638 13.0197 117.332 10.6027 114.031 10.6027Z" fill="#1E7A75"/>
<path d="M143.406 25.8882H127.862V23.0263L137.992 10.7556L128.147 10.7643V7.21454L143.125 7.20581V10.0401L132.969 22.3414L143.399 22.3327L143.406 25.8882Z" fill="#1E7A75"/>
<path d="M49.3875 34.6019H46.2464L45.5949 36.0808H44.7224L47.401 30.165H48.2372L50.9261 36.0808H50.0375L49.3875 34.6019ZM49.0967 33.9257L47.8213 31.0259L46.5445 33.9257H49.0967Z" fill="#46BB8E"/>
<path d="M64.984 33.5024V36.0808H64.1725V33.5955C64.1725 32.7229 63.7508 32.2867 63.0092 32.2867C62.1977 32.2867 61.6655 32.8015 61.6655 33.7729V36.0808H60.854V33.5955C60.854 32.7229 60.4323 32.2867 59.6906 32.2867C58.8792 32.2867 58.3469 32.8015 58.3469 33.7729V36.0808H57.5355V31.6017H58.3135V32.2692C58.6334 31.8126 59.186 31.5596 59.8593 31.5596C60.5326 31.5596 61.1187 31.8301 61.4153 32.387C61.7527 31.881 62.378 31.5596 63.1386 31.5596C64.2409 31.5596 64.984 32.1849 64.984 33.5024Z" fill="#46BB8E"/>
<path d="M67.884 33.8412C67.884 32.5063 68.8728 31.5596 70.2107 31.5596C71.5486 31.5596 72.5375 32.5063 72.5375 33.8412C72.5375 35.1762 71.5559 36.1317 70.2107 36.1317C68.8656 36.1317 67.884 35.1762 67.884 33.8412ZM71.7217 33.8412C71.7217 32.8858 71.0789 32.2692 70.2165 32.2692C69.3542 32.2692 68.7042 32.8858 68.7042 33.8412C68.7042 34.7967 69.3542 35.422 70.2165 35.422C71.0789 35.422 71.7217 34.7967 71.7217 33.8412Z" fill="#46BB8E"/>
<path d="M79.49 34.1061H75.8544C75.9562 34.8914 76.5903 35.4149 77.4773 35.4149C77.7191 35.4237 77.96 35.3799 78.1832 35.2865C78.4064 35.1931 78.6067 35.0523 78.7701 34.8739L79.2181 35.3975C78.8123 35.8715 78.2001 36.1246 77.4526 36.1246C76.0071 36.1246 75.043 35.1691 75.043 33.8342C75.043 32.4992 75.9984 31.5525 77.2912 31.5525C78.584 31.5525 79.506 32.4817 79.506 33.8589C79.506 33.9345 79.4973 34.0363 79.49 34.1061ZM75.8544 33.5244H78.728C78.6889 33.1707 78.5207 32.8437 78.2556 32.6063C77.9905 32.3688 77.6471 32.2375 77.2912 32.2375C76.9353 32.2375 76.5919 32.3688 76.3268 32.6063C76.0617 32.8437 75.8935 33.1707 75.8544 33.5244Z" fill="#46BB8E"/>
<path d="M86.6477 29.8103V36.0809H85.8712V35.3712C85.5076 35.8788 84.9318 36.1318 84.2715 36.1318C82.9627 36.1318 82.0059 35.2098 82.0059 33.8414C82.0059 32.473 82.9613 31.5597 84.2715 31.5597C84.5702 31.5481 84.8675 31.6071 85.1391 31.7319C85.4107 31.8567 85.6491 32.0438 85.8348 32.2781V29.8059L86.6477 29.8103ZM85.845 33.8414C85.845 32.886 85.195 32.2694 84.3413 32.2694C83.4877 32.2694 82.8348 32.886 82.8348 33.8414C82.8348 34.7968 83.4863 35.4221 84.3486 35.4221C85.211 35.4221 85.845 34.7968 85.845 33.8414Z" fill="#46BB8E"/>
<path d="M93.5277 33.3789V36.0837H92.7584V35.4919C92.4879 35.8976 91.9906 36.1346 91.2882 36.1346C90.2702 36.1346 89.6318 35.5937 89.6318 34.8157C89.6318 34.0973 90.0972 33.5069 91.4322 33.5069H92.7235V33.3469C92.7235 32.662 92.3265 32.265 91.5238 32.265C91.0098 32.2599 90.5093 32.4296 90.1045 32.7463L89.7656 32.1384C90.3006 31.7436 90.9522 31.5389 91.6169 31.5567C92.8355 31.5597 93.5277 32.1515 93.5277 33.3789ZM92.7162 34.7153V34.09H91.4656C90.6629 34.09 90.4346 34.4012 90.4346 34.7822C90.4346 35.2301 90.8069 35.5093 91.4235 35.5093C92.04 35.5093 92.5141 35.2272 92.7235 34.7124L92.7162 34.7153Z" fill="#46BB8E"/>
<path d="M105.116 29.8103V36.0809H104.338V35.3712C103.975 35.8788 103.4 36.1318 102.739 36.1318C101.43 36.1318 100.473 35.2098 100.473 33.8414C100.473 32.473 101.428 31.5597 102.739 31.5597C103.037 31.5482 103.335 31.6072 103.606 31.7321C103.878 31.8569 104.116 32.0439 104.302 32.2781V29.8059L105.116 29.8103ZM104.314 33.8414C104.314 32.886 103.662 32.2694 102.808 32.2694C101.955 32.2694 101.296 32.886 101.296 33.8414C101.296 34.7968 101.946 35.4221 102.808 35.4221C103.671 35.4221 104.314 34.7968 104.314 33.8414Z" fill="#46BB8E"/>
<path d="M108.032 33.8412C108.032 32.5063 109.021 31.5596 110.359 31.5596C111.697 31.5596 112.686 32.5063 112.686 33.8412C112.686 35.1762 111.704 36.1317 110.359 36.1317C109.014 36.1317 108.032 35.1762 108.032 33.8412ZM111.87 33.8412C111.87 32.8858 111.227 32.2692 110.365 32.2692C109.502 32.2692 108.852 32.8858 108.852 33.8412C108.852 34.7967 109.504 35.422 110.365 35.422C111.226 35.422 111.87 34.7967 111.87 33.8412Z" fill="#46BB8E"/>
<path d="M123.222 33.3788V36.0836H122.452V35.4918C122.182 35.8975 121.683 36.1345 120.982 36.1345C119.964 36.1345 119.324 35.5936 119.324 34.8156C119.324 34.0972 119.79 33.5068 121.125 33.5068H122.41V33.3468C122.41 32.6619 122.013 32.2649 121.209 32.2649C120.695 32.2598 120.194 32.4295 119.79 32.7462L119.452 32.1383C119.916 31.766 120.584 31.5566 121.302 31.5566C122.535 31.5595 123.222 32.1514 123.222 33.3788ZM122.41 34.7152V34.0899H121.159C120.355 34.0899 120.128 34.4011 120.128 34.7821C120.128 35.23 120.499 35.5092 121.117 35.5092C121.735 35.5092 122.206 35.2271 122.41 34.7123V34.7152Z" fill="#46BB8E"/>
<path d="M130.824 31.602V35.4731C130.824 37.0539 130.02 37.7723 128.497 37.7723C127.679 37.7723 126.85 37.5439 126.36 37.1033L126.748 36.478C127.24 36.8629 127.848 37.0681 128.473 37.0597C129.528 37.0597 130.011 36.5696 130.011 35.556V35.2012C129.81 35.4287 129.561 35.6088 129.282 35.7284C129.003 35.8481 128.7 35.9045 128.397 35.8934C127.103 35.8934 126.123 35.0209 126.123 33.7222C126.123 32.4236 127.103 31.5583 128.397 31.5583C129.064 31.5583 129.672 31.8027 130.053 32.2855V31.5932L130.824 31.602ZM130.029 33.7237C130.029 32.8512 129.387 32.2695 128.491 32.2695C127.596 32.2695 126.944 32.8512 126.944 33.7237C126.944 34.5962 127.587 35.1779 128.491 35.1779C129.396 35.1779 130.033 34.5846 130.033 33.7237H130.029Z" fill="#46BB8E"/>
<path d="M136.576 31.5596V32.3449C136.514 32.3378 136.452 32.3349 136.389 32.3361C135.517 32.3361 134.979 32.8698 134.979 33.85V36.0808H134.169V31.6017H134.945V32.3608C135.232 31.8301 135.789 31.5596 136.576 31.5596Z" fill="#46BB8E"/>
<path d="M138.908 33.8412C138.908 32.5063 139.897 31.5596 141.235 31.5596C142.573 31.5596 143.562 32.5063 143.562 33.8412C143.562 35.1762 142.58 36.1317 141.235 36.1317C139.89 36.1317 138.908 35.1762 138.908 33.8412ZM142.746 33.8412C142.746 32.8858 142.103 32.2692 141.241 32.2692C140.378 32.2692 139.728 32.8858 139.728 33.8412C139.728 34.7967 140.38 35.422 141.241 35.422C142.102 35.422 142.749 34.7967 142.749 33.8412H142.746Z" fill="#46BB8E"/>
<defs>
<linearGradient id="paint0_linear_1305_4267" x1="19.4902" y1="0.799072" x2="19.4902" y2="39.9998" gradientUnits="userSpaceOnUse">
<stop stop-color="#08958A"/>
<stop offset="0.505208" stop-color="#1C9D84"/>
<stop offset="1" stop-color="#46BB8E"/>
</linearGradient>
</defs>
</svg>
