<svg id="Layer_3" data-name="Layer 3" xmlns="http://www.w3.org/2000/svg" viewBox="0 0 24 24"><g id="eye-off"><path d="M14,14a2.82,2.82,0,0,1-.89.63,2.56,2.56,0,0,1-1.06.23,2.78,2.78,0,0,1-1.07-.19,2.94,2.94,0,0,1-.91-.6,2.77,2.77,0,0,1-.6-.91,3,3,0,0,1-.2-1.07A2.74,2.74,0,0,1,9.46,11a2.67,2.67,0,0,1,.63-.89m7.33,7.33A9.17,9.17,0,0,1,12,19.34c-6.36,0-10-7.27-10-7.27a16.73,16.73,0,0,1,4.6-5.4ZM10.11,5A8.22,8.22,0,0,1,12,4.8c6.36,0,10,7.27,10,7.27a17.17,17.17,0,0,1-2,2.9Z" fill="none" stroke="#000" stroke-linecap="round" stroke-linejoin="round" stroke-width="2"/><path d="M2,2.07l20,20" fill="none" stroke="#000" stroke-linecap="round" stroke-linejoin="round" stroke-width="2"/></g></svg>