<svg width="24" height="24" viewBox="0 0 24 24" fill="none" xmlns="http://www.w3.org/2000/svg">
<path d="M7.125 3.75C4.02246 3.75 1.5 6.30176 1.5 9.375C1.5 10.4473 1.98633 11.376 2.4375 12.0469C2.88867 12.7178 3.35156 13.1484 3.35156 13.1484L11.4609 21.2812L12 21.8203L12.5391 21.2812L20.6484 13.1484C20.6484 13.1484 22.5 11.5166 22.5 9.375C22.5 6.30176 19.9775 3.75 16.875 3.75C14.2998 3.75 12.6416 5.2998 12 5.95312C11.3584 5.2998 9.7002 3.75 7.125 3.75ZM7.125 5.25C9.36621 5.25 11.4375 7.42969 11.4375 7.42969L12 8.0625L12.5625 7.42969C12.5625 7.42969 14.6338 5.25 16.875 5.25C19.1572 5.25 21 7.12207 21 9.375C21 10.5322 19.5938 12.0938 19.5938 12.0938L12 19.6875L4.40625 12.0938C4.40625 12.0938 4.04297 11.7451 3.67969 11.2031C3.31641 10.6611 3 9.95508 3 9.375C3 7.12207 4.84277 5.25 7.125 5.25Z" fill="#252525"/>
</svg>
