<svg id="Layer_3" data-name="Layer 3" xmlns="http://www.w3.org/2000/svg" viewBox="0 0 24 24"><defs><style>.cls-1{fill:none;stroke:#000;stroke-linecap:round;stroke-linejoin:round;stroke-width:1.67px;}</style></defs><path class="cls-1" d="M19.19,16V8.89a1.59,1.59,0,0,0-1.5-1.67H6.31a1.59,1.59,0,0,0-1.5,1.67V16"/><path class="cls-1" d="M4.3,16.66H19.7a1.67,1.67,0,0,1,1.67,1.67v1.82a0,0,0,0,1,0,0H2.63a0,0,0,0,1,0,0V18.33A1.67,1.67,0,0,1,4.3,16.66Z" transform="translate(24 36.81) rotate(180)"/><line class="cls-1" x1="10.49" y1="9.6" x2="13.51" y2="9.6"/></svg>