<svg id="Layer_3" data-name="Layer 3" xmlns="http://www.w3.org/2000/svg" viewBox="0 0 24 24"><path d="M19.19,14.32V7.2a1.58,1.58,0,0,0-1.5-1.66H6.31A1.58,1.58,0,0,0,4.81,7.2v7.12" fill="none" stroke="#000" stroke-linecap="round" stroke-linejoin="round" stroke-width="2"/><path d="M4.3,15H19.7a1.67,1.67,0,0,1,1.67,1.67v1.82a0,0,0,0,1,0,0H2.63a0,0,0,0,1,0,0V16.64A1.67,1.67,0,0,1,4.3,15Z" transform="translate(24 33.44) rotate(180)" fill="none" stroke="#000" stroke-linecap="round" stroke-linejoin="round" stroke-width="2"/><line x1="10.49" y1="7.91" x2="13.51" y2="7.91" fill="none" stroke="#000" stroke-linecap="round" stroke-linejoin="round" stroke-width="2"/></svg>