<svg id="Layer_3" data-name="Layer 3" xmlns="http://www.w3.org/2000/svg" viewBox="0 0 24 24"><line x1="16.5" y1="9.36" x2="7.5" y2="4.17" fill="none" stroke="#000" stroke-linecap="round" stroke-linejoin="round" stroke-width="2"/><path d="M21,16V8a2,2,0,0,0-1-1.73l-7-4a2,2,0,0,0-2,0l-7,4A2,2,0,0,0,3,8v8a2,2,0,0,0,1,1.73l7,4a2,2,0,0,0,2,0l7-4A2,2,0,0,0,21,16Z" fill="none" stroke="#000" stroke-linecap="round" stroke-linejoin="round" stroke-width="2"/><polyline points="3.27 6.92 12 11.97 20.73 6.92" fill="none" stroke="#000" stroke-linecap="round" stroke-linejoin="round" stroke-width="2"/><line x1="12" y1="22.04" x2="12" y2="11.96" fill="none" stroke="#000" stroke-linecap="round" stroke-linejoin="round" stroke-width="2"/></svg>