<svg id="Layer_3" data-name="Layer 3" xmlns="http://www.w3.org/2000/svg" viewBox="0 0 24 24"><defs><style>.cls-1{fill:none;stroke:#000;stroke-linecap:round;stroke-linejoin:round;stroke-width:2px;}</style></defs><path d="M16.31,3.41a1.25,1.25,0,0,1,1.24,1.24v.9a1.25,1.25,0,0,1-1.24,1.24h-12A1.25,1.25,0,0,1,3,5.55v-.9A1.25,1.25,0,0,1,4.27,3.41h12m0-2h-12A3.25,3.25,0,0,0,1,4.65v.9A3.25,3.25,0,0,0,4.27,8.79h12a3.25,3.25,0,0,0,3.24-3.24v-.9a3.25,3.25,0,0,0-3.24-3.24Z"/><path d="M10.88,15.29a.41.41,0,0,1,.41.4v4.49a.42.42,0,0,1-.41.41h-.29a.41.41,0,0,1-.41-.41V15.69a.4.4,0,0,1,.41-.4h.29m0-2h-.29a2.41,2.41,0,0,0-2.41,2.4v4.49a2.41,2.41,0,0,0,2.41,2.41h.29a2.41,2.41,0,0,0,2.41-2.41V15.69a2.41,2.41,0,0,0-2.41-2.4Z"/><path class="cls-1" d="M18.86,5h.9A1.21,1.21,0,0,1,21,6.17V9.84a1.66,1.66,0,0,1-1.66,1.66H12.19a1.7,1.7,0,0,0-1.69,1.7v.62"/></svg>