<svg id="Layer_3" data-name="Layer 3" xmlns="http://www.w3.org/2000/svg" viewBox="0 0 24 24"><polyline points="19.41 14.13 19.41 22.04 4.59 22.04 4.59 14.04" fill="none" stroke="#000" stroke-linecap="round" stroke-linejoin="round" stroke-width="2"/><line x1="21.47" y1="10.38" x2="2.05" y2="10.38" fill="none" stroke="#000" stroke-linecap="round" stroke-linejoin="round" stroke-width="2"/><path d="M21.94,10.29h0a.83.83,0,0,0,0,.15" fill="none" stroke="#000" stroke-linecap="round" stroke-linejoin="round" stroke-width="2"/><path d="M2,10.3,3.16,6.94,4.16,4H19.64l1,2.83h0l1.27,3.46" fill="none" stroke="#000" stroke-linecap="round" stroke-linejoin="round" stroke-width="2"/><path d="M2.05,10.69C2.4,13,3.74,14.13,5.32,14.13S8.24,13,8.59,10.69c.35,2.31,1.68,3.44,3.26,3.44s2.92-1.13,3.27-3.44v0c.35,2.31,1.68,3.44,3.27,3.44s2.92-1.13,3.26-3.44" fill="none" stroke="#000" stroke-linecap="round" stroke-linejoin="round" stroke-width="2"/></svg>