<?xml version="1.0" encoding="utf-8"?>
<!-- Generator: Adobe Illustrator 26.0.3, SVG Export Plug-In . SVG Version: 6.00 Build 0)  -->
<svg version="1.1" id="Layer_1" xmlns="http://www.w3.org/2000/svg" xmlns:xlink="http://www.w3.org/1999/xlink" x="0px" y="0px"
	 viewBox="0 0 24 24" style="enable-background:new 0 0 24 24;" xml:space="preserve">
<style type="text/css">
	.st0{fill:none;stroke:#212121;stroke-width:2;stroke-linecap:round;stroke-linejoin:round;}
</style>
<g id="Layer_3">
	<path class="st0" d="M13.5,5.6H5.7"/>
	<path class="st0" d="M12.4,14.9c0.2,0.5,0.3,1.1,0.3,1.7c0,3-2.4,5.4-5.4,5.4s-5.4-2.4-5.4-5.4c0-2.5,1.7-4.7,4.1-5.2
		c0.4-0.1,0.8-0.1,1.2-0.1C9.6,11.2,11.7,12.7,12.4,14.9z"/>
	<path class="st0" d="M8,16.6c0,0.4-0.3,0.7-0.8,0.7S6.5,17,6.5,16.6s0.3-0.7,0.8-0.7c0,0,0,0,0,0C7.7,15.9,8,16.2,8,16.6z"/>
	<path class="st0" d="M12.8,16.3h6.8c1.3,0,2.3-1,2.3-2.3v-2.3c0-0.5-0.4-0.9-0.9-0.9h-6l-1.5-5.3H5.7L4.1,12"/>
	<path class="st0" d="M5.8,2.8h6.5c1.1,0,2,0.9,2,2l0,0c0,0.5-0.4,0.8-0.8,0.8H5.8c-0.5,0-0.8-0.4-0.8-0.8c0,0,0,0,0,0V3.6
		C4.9,3.1,5.3,2.8,5.8,2.8L5.8,2.8z"/>
	<ellipse class="st0" cx="18.5" cy="19.1" rx="2.8" ry="2.8"/>
</g>
</svg>
