<svg id="Layer_3" data-name="Layer 3" xmlns="http://www.w3.org/2000/svg" viewBox="0 0 24 24"><g id="alert"><path d="M10.36,4.26,2.26,17.79a1.89,1.89,0,0,0-.26.95,2,2,0,0,0,.25,1,2,2,0,0,0,.69.7,1.89,1.89,0,0,0,1,.26H20.11a1.89,1.89,0,0,0,.95-.26,2,2,0,0,0,.69-.7,2,2,0,0,0,.25-1,1.89,1.89,0,0,0-.26-.95L13.64,4.26a1.9,1.9,0,0,0-.7-.68,2,2,0,0,0-1.88,0,1.9,1.9,0,0,0-.7.68Z" fill="none" stroke="#000" stroke-linecap="round" stroke-linejoin="round" stroke-width="2"/><path d="M12,9.18V13" fill="none" stroke="#000" stroke-linecap="round" stroke-linejoin="round" stroke-width="2"/><path d="M12,15.88v.48" fill="none" stroke="#000" stroke-linecap="round" stroke-linejoin="round" stroke-width="2"/></g></svg>