<svg id="Layer_3" data-name="Layer 3" xmlns="http://www.w3.org/2000/svg" viewBox="0 0 24 24"><g id="cart"><path d="M9.27,21.55a.91.91,0,1,0-.91-.91A.91.91,0,0,0,9.27,21.55Z" fill="none" stroke="#000" stroke-linecap="round" stroke-linejoin="round" stroke-width="2"/><path d="M19.27,21.55a.91.91,0,1,0-.91-.91A.91.91,0,0,0,19.27,21.55Z" fill="none" stroke="#000" stroke-linecap="round" stroke-linejoin="round" stroke-width="2"/><path d="M2,2.45H5.64L8.07,14.63a1.82,1.82,0,0,0,.65,1.06,1.77,1.77,0,0,0,1.17.4h8.84a1.79,1.79,0,0,0,1.17-.4,1.87,1.87,0,0,0,.65-1.06L22,7H6.55" fill="none" stroke="#000" stroke-linecap="round" stroke-linejoin="round" stroke-width="2"/></g></svg>