<svg xmlns="http://www.w3.org/2000/svg" viewBox="0 0 24 24"><defs><style>.cls-1{fill:none;stroke:#212121;stroke-linecap:round;stroke-linejoin:round;stroke-width:2px;}</style></defs><g id="Layer_3" data-name="Layer 3"><g id="gear"><circle class="cls-1" cx="12" cy="12" r="2.73"/><path class="cls-1" d="M18.73,14.73a1.49,1.49,0,0,0,.3,1.65l0,.06a1.82,1.82,0,0,1,0,2.57h0a1.82,1.82,0,0,1-2.57,0h0L16.45,19A1.51,1.51,0,0,0,13.89,20v.15a1.82,1.82,0,0,1-3.64,0V20.1a1.48,1.48,0,0,0-1-1.37,1.49,1.49,0,0,0-1.65.3l-.06,0a1.82,1.82,0,0,1-2.57,0H5a1.82,1.82,0,0,1,0-2.57H5l.06-.06A1.51,1.51,0,0,0,4,13.89H3.82a1.82,1.82,0,0,1,0-3.64H3.9a1.48,1.48,0,0,0,1.37-1A1.49,1.49,0,0,0,5,7.62l0-.06A1.82,1.82,0,0,1,4.92,5h0A1.82,1.82,0,0,1,7.49,5h0l.06.06a1.52,1.52,0,0,0,1.65.3h.07A1.51,1.51,0,0,0,10.18,4V3.82a1.82,1.82,0,0,1,3.64,0V3.9A1.51,1.51,0,0,0,16.38,5l.06,0a1.82,1.82,0,0,1,2.57,0h0a1.82,1.82,0,0,1,0,2.57h0L19,7.55a1.52,1.52,0,0,0-.3,1.65v.07a1.51,1.51,0,0,0,1.38.91h.15a1.82,1.82,0,0,1,0,3.64H20.1A1.48,1.48,0,0,0,18.73,14.73Z"/></g></g></svg>