<svg id="Layer_3" data-name="Layer 3" xmlns="http://www.w3.org/2000/svg" viewBox="0 0 24 24"><g id="seedz"><path d="M6.94,5.31A1.52,1.52,0,1,1,5.42,3.79,1.53,1.53,0,0,1,6.94,5.31Z" fill="#212121"/><path d="M15.91,2.94a1.52,1.52,0,1,1-1.52-1.52A1.52,1.52,0,0,1,15.91,2.94Z" fill="#212121"/><path d="M22.41,9.57a1.53,1.53,0,1,1-1.52-1.52A1.52,1.52,0,0,1,22.41,9.57Z" fill="#212121"/><path d="M20,18.34a1.53,1.53,0,1,1-3.05,0,1.53,1.53,0,0,1,3.05,0Z" fill="#212121"/><path d="M4.69,14.25a1.53,1.53,0,1,1-3.05,0,1.53,1.53,0,0,1,3.05,0Z" fill="#212121"/><path d="M14.05,11.83a2.05,2.05,0,1,1-2.05-2A2.05,2.05,0,0,1,14.05,11.83Z" fill="#212121"/><path d="M11.17,20.72A1.53,1.53,0,1,1,9.65,19.2,1.53,1.53,0,0,1,11.17,20.72Z" fill="#212121"/><path d="M15.91,7.91a1.52,1.52,0,1,1-3,0,.75.75,0,0,1,0-.21L9.65,4.46a1.52,1.52,0,1,1,1.52-1.52.62.62,0,0,1,0,.19l3.24,3.25h0A1.53,1.53,0,0,1,15.91,7.91Z" fill="#212121"/><path d="M15.94,21.06a1.52,1.52,0,1,1-3,0,.75.75,0,0,1,0-.21L9.69,17.62h0a1.53,1.53,0,1,1,0-3.05,1.52,1.52,0,0,1,1.52,1.52.68.68,0,0,1,0,.2l3.26,3.25A1.52,1.52,0,0,1,15.94,21.06Z" fill="#212121"/><path d="M11,8.58a1.55,1.55,0,0,1-1.33.77,1.47,1.47,0,0,1-.75-.21A1,1,0,0,1,8.77,9L4.35,10.2a0,0,0,0,0,0,0,1.53,1.53,0,0,1-.92.71A1.83,1.83,0,0,1,3,11a1.6,1.6,0,0,1-.76-.2A1.52,1.52,0,0,1,1.7,8.69,1.5,1.5,0,0,1,2.63,8a1.48,1.48,0,0,1,1.16.15.72.72,0,0,1,.15.11L8.39,7.05a1.49,1.49,0,0,1,.91-.7,1.56,1.56,0,0,1,1.16.15A1.52,1.52,0,0,1,11,8.58Z" fill="#212121"/><path d="M8.09,13.43a.88.88,0,0,1-.2.09L6.71,17.94A1.51,1.51,0,0,1,6.16,20a1.49,1.49,0,0,1-.76.2,1.53,1.53,0,0,1-1.48-1.91,1.55,1.55,0,0,1,.71-.93l.18-.09h0L6,12.86a1.53,1.53,0,0,1,.56-2.07,1.49,1.49,0,0,1,.76-.2,1.51,1.51,0,0,1,1.32.76A1.53,1.53,0,0,1,8.09,13.43Z" fill="#212121"/><path d="M20.07,5.73a1.5,1.5,0,0,1-.7.93l-.2.1L18,11.17a1.52,1.52,0,0,1-1.31,2.28,1.52,1.52,0,0,1-.77-2.84l.17-.09h0l1.18-4.43a1.58,1.58,0,0,1-.14-1.15A1.53,1.53,0,0,1,17.84,4a1.49,1.49,0,0,1,.76-.2,1.51,1.51,0,0,1,1.32.76A1.45,1.45,0,0,1,20.07,5.73Z" fill="#212121"/><path d="M22.3,15.07a1.58,1.58,0,0,1-.93.71,1.75,1.75,0,0,1-.4.05,1.5,1.5,0,0,1-.76-.21A1,1,0,0,1,20,15.5l-4.42,1.19a1.53,1.53,0,0,1-.92.71,1.37,1.37,0,0,1-.4.05,1.6,1.6,0,0,1-.76-.2,1.52,1.52,0,0,1,.37-2.79,1.49,1.49,0,0,1,1.15.15h0a.72.72,0,0,1,.15.11l4.45-1.19a1.49,1.49,0,0,1,.91-.7,1.54,1.54,0,0,1,1.87,1.08A1.57,1.57,0,0,1,22.3,15.07Z" fill="#212121"/></g></svg>