<svg id="Layer_3" data-name="Layer 3" xmlns="http://www.w3.org/2000/svg" viewBox="0 0 24 24"><g id="whatsapp"><path d="M4.2,17a10,10,0,1,1,3.5,3.5l-3.46,1a.79.79,0,0,1-.43,0,.75.75,0,0,1-.38-.21.86.86,0,0,1-.22-.38.82.82,0,0,1,0-.44Z" fill="none" stroke="#000" stroke-linecap="round" stroke-linejoin="round" stroke-width="2"/><path d="M15.19,16.93a7.51,7.51,0,0,1-5.25-2.17,7.39,7.39,0,0,1-1.61-2.41,7.49,7.49,0,0,1-.56-2.84,2.57,2.57,0,0,1,.76-1.83,2.6,2.6,0,0,1,1.83-.75.72.72,0,0,1,.32.08.59.59,0,0,1,.23.24L12,9.14a.73.73,0,0,1,.09.38.69.69,0,0,1-.1.37l-.87,1.45a4.45,4.45,0,0,0,2.23,2.23l1.45-.86a.73.73,0,0,1,.38-.11.69.69,0,0,1,.37.1l1.9,1.08a.84.84,0,0,1,.23.23.62.62,0,0,1,.09.32,2.61,2.61,0,0,1-2.58,2.6Z" fill="none" stroke="#000" stroke-linecap="round" stroke-linejoin="round" stroke-width="2"/></g></svg>