<svg id="Layer_3" data-name="Layer 3" xmlns="http://www.w3.org/2000/svg" viewBox="0 0 24 24"><defs><style>.cls-1{fill:none;stroke:#000;stroke-linecap:round;stroke-linejoin:round;stroke-width:1.67px;}</style></defs><path class="cls-1" d="M20.78,7.58a2.29,2.29,0,0,0-1.61-1.67A60.12,60.12,0,0,0,12,5.56a55.41,55.41,0,0,0-7.17.38A2.31,2.31,0,0,0,3.22,7.61,24.11,24.11,0,0,0,2.83,12a23.65,23.65,0,0,0,.39,4.44,2.32,2.32,0,0,0,1.61,1.6,55.41,55.41,0,0,0,7.17.38,55.41,55.41,0,0,0,7.17-.38,2.31,2.31,0,0,0,1.61-1.67A24.66,24.66,0,0,0,21.17,12,23.57,23.57,0,0,0,20.78,7.58Z"/><polygon class="cls-1" points="10.13 14.74 14.92 12.02 10.13 9.29 10.13 14.74"/></svg>